<?xml version="1.0" encoding="UTF-8"?>
<svg width="60px" height="22px" viewBox="0 0 60 22" version="1.1" xmlns="http://www.w3.org/2000/svg" xmlns:xlink="http://www.w3.org/1999/xlink">
    <!-- Generator: Sketch 53.1 (72631) - https://sketchapp.com -->
    <title>logo</title>
    <desc>Created with Sketch.</desc>
    <defs>
        <polygon id="path-1" points="4.22223121 0.150520231 0.129919075 0.150520231 0.129919075 4.75472254 4.22223121 4.75472254 4.22223121 0.150520231"></polygon>
        <polygon id="path-3" points="0.114572254 15.2601156 21.0379424 15.2601156 21.0379424 0.129668098 0.114572254 0.129668098 0.114572254 15.2601156"></polygon>
    </defs>
    <g id="首页" stroke="none" stroke-width="1" fill="none" fill-rule="evenodd">
        <g id="首页-建模平台" transform="translate(-119.000000, -17.000000)">
            <g id="head">
                <g id="菜单">
                    <g id="分组-9" transform="translate(119.000000, 10.000000)">
                        <g id="logo" transform="translate(0.000000, 2.000000)">
                            <g transform="translate(0.000000, 5.000000)">
                                <g id="Group-3" transform="translate(22.716763, 0.022890)">
                                    <mask id="mask-2" fill="white">
                                        <use xlink:href="#path-1"></use>
                                    </mask>
                                    <g id="Clip-2"></g>
                                    <path d="M4.22223121,2.77160116 C3.27211561,-0.18383237 0.129919075,0.162988439 0.129919075,0.162988439 C0.83049711,1.27749711 1.63304046,2.98610983 2.05130636,4.75472254 L4.22223121,2.77160116 Z" id="Fill-1" fill="#FFFFFF" mask="url(#mask-2)"></path>
                                </g>
                                <path d="M24.8540809,7.84363006 C23.908474,4.86478613 20.7645434,5.21073988 20.7645434,5.21073988 C21.4673757,6.32611561 22.2671445,8.03403468 22.6807283,9.82675145 L24.8540809,7.84363006 Z" id="Fill-4" fill="#FFFFFF"></path>
                                <path d="M59.0144913,0.185878613 L46.0916012,0.185878613 C43.789578,0.185878613 43.405474,2.8773815 43.405474,2.8773815 L56.3897514,2.8773815 C58.6482486,2.8773815 59.0144913,0.185878613 59.0144913,0.185878613" id="Fill-6" fill="#FFFFFF"></path>
                                <path d="M45.546052,8.47479191 C45.9194046,8.04681503 46.4247225,7.58432948 47.2499827,7.08057225 C48.1061098,6.55756647 48.9785376,6.29224855 49.8442023,6.29224855 C51.6454162,6.29276879 53.068422,7.44924277 53.9047803,8.47479191 L57.3058786,8.47479191 C59.388711,8.47479191 59.901659,5.78242197 59.901659,5.78242197 L43.3373237,5.78242197 C41.361659,5.78242197 40.7018324,8.47479191 40.7018324,8.47479191 L45.546052,8.47479191 Z" id="Fill-8" fill="#FFFFFF"></path>
                                <path d="M24.3571387,10.1328555 L18.7351734,16.3137225 L21.1460983,17.8530867 C24.7006647,13.3014104 24.3571387,10.1328555 24.3571387,10.1328555" id="Fill-10" fill="#FFFFFF"></path>
                                <g id="Group-14" transform="translate(37.803468, 6.785896)">
                                    <mask id="mask-4" fill="white">
                                        <use xlink:href="#path-3"></use>
                                    </mask>
                                    <g id="Clip-13"></g>
                                    <path d="M18.4520289,3.86363584 C17.2289653,3.46236416 16.4423757,3.33577457 15.9431272,2.6495896 C15.3625491,1.8513815 13.2188497,-1.25734682 9.76919653,0.849936416 C7.18260694,2.43057225 8.08434104,3.48404046 5.20156647,4.82623699 C2.31931214,6.16947399 2.3153237,7.91432948 3.32890751,8.90224855 C4.34093064,9.89068786 7.8335896,10.4863526 10.1741098,9.82219075 C12.5146301,9.15733526 13.473763,8.35409827 13.4300636,6.79669942 C13.3893121,5.35028324 10.9438786,4.06097688 9.55971676,6.19930058 C9.27844509,6.75525434 9.69792486,7.05005202 9.69792486,7.05005202 C9.76676879,6.23901156 10.2459017,6.4696474 10.2620289,6.47779769 C10.713763,6.7330578 11.1268266,7.17525434 10.6045145,7.85259538 C9.68561272,9.04097688 7.11948555,8.84172832 6.66480347,8.29496532 C6.22468786,7.76224855 5.9435896,6.57074566 7.63330058,5.47063006 C9.32093064,4.37016763 11.2608728,2.99259538 14.0045723,4.22224855 C16.1189653,5.17010983 17.0538208,6.21889595 17.1793699,7.16519653 C17.3054393,8.11444509 16.6171734,8.96086127 15.4880983,9.49860694 C13.2358439,10.5725376 11.2697168,10.8005723 7.86619075,11.3157746 C4.46214451,11.8314971 0.633242775,13.9850809 0.114572254,15.2601676 C0.114572254,15.2601676 3.1336474,12.2866994 10.1812197,12.3775665 C17.2265376,12.4679133 20.7826647,9.95693064 21.0217977,7.39860694 C21.2096012,5.37005202 19.7226069,4.28051445 18.4520289,3.86363584" id="Fill-12" fill="#FFFFFF" mask="url(#mask-4)"></path>
                                </g>
                                <path d="M17.0600116,5.34789017 L12.9775838,5.34789017 L13.4090289,2.87436416 L17.4938844,2.87436416 L17.0600116,5.34789017 Z M16.1846358,10.3540751 L12.0708208,10.3540751 C12.247526,9.52968208 12.4041156,8.69887283 12.5362543,7.86060694 L16.6211098,7.86060694 L16.1846358,10.3540751 Z M11.3319191,0.432919075 L9.93978035,8.11586705 C9.51648555,10.6098555 9.09110983,12.7511272 8.7940578,13.9141908 C8.22336416,16.1433815 7.03290173,18.9985838 7.03290173,18.9985838 C7.03290173,18.9985838 10.6294335,17.2724566 11.6246358,12.8674855 L15.7446936,12.8674855 L15.5350405,14.0640173 C15.3165434,15.308237 15.0333642,16.8543642 13.4246358,16.8543642 L12.343422,16.8543642 L11.9822081,18.548237 C11.9822081,18.548237 13.2926705,18.6101445 14.3471792,18.548237 C15.4018613,18.4865029 16.1435376,18.154422 16.5352717,17.7942486 C16.9290867,17.434422 17.2344624,17.0189306 17.450185,16.5474277 C17.6683353,16.0766185 17.8309942,15.5239595 17.9421503,14.8889306 L20.4902428,0.322803468 L11.3319191,0.432919075 Z" id="Fill-15" fill="#FFFFFF"></path>
                                <path d="M36.877578,7.31214451 L32.4009884,7.31214451 L32.6182717,6.07468786 L37.0945145,6.07468786 L36.877578,7.31214451 Z M36.3403526,10.374052 L31.8651503,10.374052 L32.0857283,9.117 L36.5612775,9.117 L36.3403526,10.374052 Z M38.6643988,11.0075202 L39.8777514,4.07145087 L35.6231272,4.07145087 C36.1176936,3.33324277 36.4787341,2.77017919 36.7017399,2.38416763 L39.186711,2.38416763 C41.0945723,2.38416763 41.4025491,0.185843931 41.4025491,0.185843931 L27.6420867,0.185843931 L26.2842832,7.93954335 C25.5693121,12.1019133 24.370526,16.4512197 22.507578,18.0797168 C23.0383873,17.6148035 26.900237,17.8530694 28.7356127,8.29208671 L29.7682717,2.38416763 L34.1210462,2.38416763 C33.8434162,2.96595954 33.5382139,3.52902312 33.2082139,4.07145087 L31.7853815,4.07145087 C31.7853815,4.07145087 30.5588497,4.1586763 30.3063642,5.59884971 C30.0545723,7.03815607 29.1197168,12.3760751 29.1197168,12.3760751 L32.5952081,12.3760751 L32.0517399,15.4771734 C31.9570578,15.9358439 31.6178671,16.2039364 31.0279249,16.2833584 C30.4879249,16.3149191 29.6468844,16.2663642 29.6468844,16.2663642 C29.6468844,16.2663642 29.9422023,15.9665376 30.2793121,14.8648613 C30.6297746,13.7203526 30.4613931,12.9401792 30.4613931,12.9401792 C28.3031272,15.330815 26.4748613,16.4983873 26.4748613,16.4983873 L28.0419711,17.9706416 C28.6532428,17.5353815 29.1753815,16.9404104 29.5258439,16.400237 C29.5913931,17.2183873 29.2662486,18.697578 29.2662486,18.697578 C29.2662486,18.697578 31.4749769,18.690815 32.1294277,18.5985607 C32.7826647,18.5076936 33.3027225,18.2519133 33.6859595,17.8336474 C34.070237,17.414341 34.3284451,16.8330694 34.4591965,16.0856705 L35.107578,12.3760751 L37.1295434,12.3760751 C38.4450347,12.3760751 38.6643988,11.0075202 38.6643988,11.0075202 L38.6643988,11.0075202 Z" id="Fill-17" fill="#FFFFFF"></path>
                                <path d="M35.7905376,13.1645723 C36.0303642,14.7370578 36.2292659,16.3936474 36.4860867,18.3665376 L38.7189191,17.1693121 C38.2810578,13.6013931 35.7905376,13.1645723 35.7905376,13.1645723" id="Fill-19" fill="#FFFFFF"></path>
                                <path d="M6.02313295,7.614 L4.17839306,7.614 L4.97937572,3.03145665 L6.82463584,3.03145665 L6.02313295,7.614 Z M4.80995376,14.5518035 L2.96486705,14.5518035 L3.76636994,9.97030058 L5.61110983,9.97030058 L4.80995376,14.5518035 Z M9.71053179,0.676196532 L4.31764162,0.676196532 C2.84035838,0.676196532 2.57469364,2.19856647 2.57469364,2.19856647 L6.93641617e-05,16.908104 L5.67041618,16.908104 C6.71920231,16.908104 7.07417341,15.7420925 7.07417341,15.7420925 L9.71053179,0.676196532 Z" id="Fill-21" fill="#FFFFFF"></path>
                            </g>
                        </g>
                    </g>
                </g>
            </g>
        </g>
    </g>
</svg>