<?xml version="1.0" standalone="no"?><!DOCTYPE svg PUBLIC "-//W3C//DTD SVG 1.1//EN" "http://www.w3.org/Graphics/SVG/1.1/DTD/svg11.dtd"><svg t="1575878538651" class="icon" viewBox="0 0 1024 1024" version="1.1" xmlns="http://www.w3.org/2000/svg" p-id="1661" xmlns:xlink="http://www.w3.org/1999/xlink" width="200" height="200"><defs><style type="text/css"></style></defs><path d="M909.2 99.5H113.5c-27.6 0-50.2 22.6-50.2 50.2v729.7c0 27.6 22.6 50.2 50.2 50.2h795.6c27.6 0 50.2-22.6 50.2-50.2V149.7c0-27.6-22.5-50.2-50.1-50.2z m-78.1 691c0 17.6-14.4 32-32 32H211.8c-17.6 0-32-14.4-32-32s14.4-32 32-32h47.9c6.6 0 12-5.4 12-12V273.6c0-32.1 26.2-58.3 58.3-58.3h230.4c32.1 0 58.3 26.2 58.3 58.3v72.8c0 6.6 5.4 12 12 12h56.9c29.8 0 54.3 24.4 54.3 54.3v335.6c0 5.6 4.6 10.2 10.2 10.2h47c17.6 0 32 14.4 32 32z" fill="#FFCE3D" p-id="1662"></path><path d="M391.8 299.1h-25.7c-11.3 0-20.5 9.2-20.5 20.5v35.8c0 11.3 9.2 20.5 20.5 20.5h25.7c11.3 0 20.5-9.2 20.5-20.5v-35.8c0-11.3-9.2-20.5-20.5-20.5zM391.8 442.1h-25.7c-11.3 0-20.5 9.2-20.5 20.5v35.8c0 11.3 9.2 20.5 20.5 20.5h25.7c11.3 0 20.5-9.2 20.5-20.5v-35.8c0-11.3-9.2-20.5-20.5-20.5zM391.8 580.1h-25.7c-11.3 0-20.5 9.2-20.5 20.5v35.8c0 11.3 9.2 20.5 20.5 20.5h25.7c11.3 0 20.5-9.2 20.5-20.5v-35.8c0-11.3-9.2-20.5-20.5-20.5zM674.8 622.4h-39.7c-11.3 0-20.5 9.2-20.5 20.5v90.8c0 11.3 9.2 20.5 20.5 20.5h39.7c11.3 0 20.5-9.2 20.5-20.5v-90.8c-0.1-11.3-9.3-20.5-20.5-20.5zM512 299.1h-25.7c-11.3 0-20.5 9.2-20.5 20.5v35.8c0 11.3 9.2 20.5 20.5 20.5H512c11.3 0 20.5-9.2 20.5-20.5v-35.8c-0.1-11.3-9.3-20.5-20.5-20.5zM512 580.1h-25.7c-11.3 0-20.5 9.2-20.5 20.5v35.8c0 11.3 9.2 20.5 20.5 20.5H512c11.3 0 20.5-9.2 20.5-20.5v-35.8c-0.1-11.3-9.3-20.5-20.5-20.5zM512 442.1h-25.7c-11.3 0-20.5 9.2-20.5 20.5v35.8c0 11.3 9.2 20.5 20.5 20.5H512c11.3 0 20.5-9.2 20.5-20.5v-35.8c-0.1-11.3-9.3-20.5-20.5-20.5z" fill="#FFCE3D" p-id="1663"></path></svg>